<svg width="24" height="24" viewBox="0 0 24 24" fill="none" xmlns="http://www.w3.org/2000/svg">
<path d="M9.05875 14.5877H20.823C21.4701 14.5877 21.9995 14.0583 21.9995 13.4112V11.0584C21.9995 10.4114 21.4701 9.88196 20.823 9.88196H9.05875C8.41172 9.88196 7.88232 10.4114 7.88232 11.0584V13.4112C7.88232 14.0583 8.41172 14.5877 9.05875 14.5877Z" fill="white"/>
<path d="M9.05875 20.4696H20.823C21.4701 20.4696 21.9995 19.9402 21.9995 19.2932V16.9403C21.9995 16.2933 21.4701 15.7639 20.823 15.7639H9.05875C8.41172 15.7639 7.88232 16.2933 7.88232 16.9403V19.2932C7.88232 19.9402 8.41172 20.4696 9.05875 20.4696Z" fill="white"/>
<path d="M7.88232 5.17643V7.52928C7.88232 8.17632 8.41172 8.70571 9.05875 8.70571H20.823C21.4701 8.70571 21.9995 8.17632 21.9995 7.52928V5.17643C21.9995 4.52939 21.4701 4 20.823 4H9.05875C8.41172 4 7.88232 4.52939 7.88232 5.17643Z" fill="white"/>
<path d="M3.17692 14.5888H5.52977C6.17681 14.5888 6.7062 14.0594 6.7062 13.4123V11.0595C6.7062 10.4124 6.17681 9.88306 5.52977 9.88306H3.17692C2.52988 9.88306 2.00049 10.4124 2.00049 11.0595V13.4123C2.00049 14.0594 2.52988 14.5888 3.17692 14.5888Z" fill="white"/>
<path d="M3.17643 8.70571H5.52928C6.17632 8.70571 6.70571 8.17632 6.70571 7.52928V5.17643C6.70571 4.52939 6.17632 4 5.52928 4H3.17643C2.52939 4 2 4.52939 2 5.17643V7.52928C2 8.17632 2.52939 8.70571 3.17643 8.70571Z" fill="white"/>
<path d="M5.19231 18.1106L6.54108 16.7619C6.64823 16.6509 6.70752 16.5023 6.70618 16.3481C6.70484 16.1939 6.64297 16.0464 6.53391 15.9373C6.42485 15.8282 6.27732 15.7664 6.1231 15.765C5.96887 15.7637 5.82028 15.823 5.70935 15.9301L4.36057 17.2789L3.0118 15.9301C2.90086 15.823 2.75227 15.7637 2.59805 15.765C2.44382 15.7664 2.29629 15.8282 2.18723 15.9373C2.07817 16.0464 2.01631 16.1939 2.01497 16.3481C2.01363 16.5023 2.07292 16.6509 2.18006 16.7619L3.52884 18.1106L2.18006 19.4594C2.12388 19.5137 2.07907 19.5786 2.04824 19.6503C2.01742 19.7221 2.00119 19.7993 2.00051 19.8774C1.99983 19.9555 2.01471 20.033 2.04429 20.1052C2.07387 20.1775 2.11754 20.2432 2.17277 20.2984C2.228 20.3537 2.29368 20.3973 2.36597 20.4269C2.43825 20.4565 2.51571 20.4714 2.59381 20.4707C2.67192 20.47 2.7491 20.4538 2.82087 20.423C2.89263 20.3921 2.95754 20.3473 3.0118 20.2911L4.36057 18.9424L5.70935 20.2911C5.82028 20.3983 5.96887 20.4576 6.1231 20.4562C6.27732 20.4549 6.42485 20.393 6.53391 20.284C6.64297 20.1749 6.70484 20.0274 6.70618 19.8732C6.70752 19.7189 6.64823 19.5704 6.54108 19.4594L5.19231 18.1106Z" fill="white"/>
</svg>
